<?xml version="1.0" encoding="UTF-8"?>
<svg xmlns="http://www.w3.org/2000/svg" viewBox="0 0 198.7 149.55">
  <g fill="#151619">
    <path d="M.27,102.03l35.74-27.76s.04-.04.04-.07V.17c0-.14-.16-.22-.27-.13L12.06,18.46C4.45,24.37,0,33.46,0,43.09v58.8c0,.14.16.22.27.13Z"/>
    <path d="M96.67,66.29l27.76,35.74s.04.04.07.04h74.02c.14,0,.22-.16.13-.27l-18.42-23.71c-5.91-7.61-15-12.06-24.64-12.06h-58.8c-.14,0-.22.16-.13.27Z"/>
    <path d="M102.03,149.28l-18.42-23.71c-5.91-7.61-15-12.06-24.64-12.06H.17c-.14,0-.22.16-.13.27l27.76,35.74s.04.04.07.04h74.02c.14,0,.22-.16.13-.27Z"/>
    <path d="M44.65,62.37l45.25.02s.06-.01.07-.04L135.41,3.92c.09-.11,0-.27-.13-.27h-30.03c-9.63-.02-18.73,4.43-24.64,12.04l-36.09,46.42c-.09.11,0,.27.13.27Z"/>
  </g>
</svg>
